<svg width="11" height="11" viewBox="0 0 11 11" fill="none" xmlns="http://www.w3.org/2000/svg">
<path d="M0.126923 5.92308C0.0423077 5.83847 0 5.71154 0 5.62693C0 5.54231 0.0423077 5.41539 0.126923 5.33077L0.719231 4.73847C0.888462 4.56924 1.14231 4.56924 1.31154 4.73847L1.35385 4.78077L3.68077 7.27693C3.76538 7.36154 3.89231 7.36154 3.97692 7.27693L9.64615 1.39616H9.68846C9.85769 1.22693 10.1115 1.22693 10.2808 1.39616L10.8731 1.98847C11.0423 2.1577 11.0423 2.41154 10.8731 2.58077L4.10385 9.60385C4.01923 9.68847 3.93462 9.73077 3.80769 9.73077C3.68077 9.73077 3.59615 9.68847 3.51154 9.60385L0.211538 6.05001L0.126923 5.92308Z" fill="white"/>
</svg>
